<svg width="145" height="145" viewBox="0 0 145 145" fill="none" xmlns="http://www.w3.org/2000/svg">
<path d="M67.5 2.88675C70.594 1.10042 74.406 1.10042 77.5 2.88675L130.287 33.3632C133.381 35.1496 135.287 38.4508 135.287 42.0235V102.977C135.287 106.549 133.381 109.85 130.287 111.637L77.5 142.113C74.406 143.9 70.594 143.9 67.5 142.113L14.7132 111.637C11.6191 109.85 9.71316 106.549 9.71316 102.976V42.0235C9.71316 38.4508 11.6191 35.1496 14.7132 33.3632L67.5 2.88675Z" fill="#C4C4C4" fill-opacity="0.3"/>
<path d="M67.5149 63.156L20.9649 40.4778C17.6436 38.8597 13.775 41.2783 13.775 44.9727V103.086C13.775 104.806 14.6589 106.405 16.1153 107.32L62.6653 136.563C65.9951 138.655 70.325 136.262 70.325 132.329V67.6509C70.325 65.7385 69.2341 63.9935 67.5149 63.156Z" fill="url(#paint0_linear)"/>
<path d="M76.8047 62.444L124.805 39.644C128.122 38.0681 131.95 40.4875 131.95 44.1604V102.324C131.95 104.064 131.045 105.679 129.562 106.588L81.5615 135.988C78.2299 138.029 73.95 135.631 73.95 131.724V66.9604C73.95 65.0301 75.0611 63.2722 76.8047 62.444Z" fill="url(#paint1_linear)"/>
<defs>
<linearGradient id="paint0_linear" x1="75.4" y1="63.075" x2="-0.724977" y2="115.275" gradientUnits="userSpaceOnUse">
<stop stop-color="#BCBCBC" stop-opacity="0.08"/>
<stop offset="1" stop-color="#C4C4C4" stop-opacity="0"/>
</linearGradient>
<linearGradient id="paint1_linear" x1="68.7448" y1="62.35" x2="145.546" y2="116.364" gradientUnits="userSpaceOnUse">
<stop stop-color="#BCBCBC" stop-opacity="0.08"/>
<stop offset="1" stop-color="#C4C4C4" stop-opacity="0"/>
</linearGradient>
</defs>
</svg>
