<svg width="522" height="416" viewBox="0 0 522 416" fill="none" xmlns="http://www.w3.org/2000/svg">
<circle cx="272.5" cy="198.5" r="193.5" fill="url(#paint0_linear)"/>
<circle cx="89" cy="32" r="10" stroke="#FFDF37" stroke-width="4"/>
<circle cx="423" cy="10" r="8" stroke="#9338EE" stroke-width="4"/>
<circle cx="78.5" cy="330.5" r="5.5" fill="#9338EE"/>
<circle cx="512" cy="166" r="10" fill="#0165FF"/>
<rect x="12" y="119" width="3" height="10" rx="1.5" fill="#0165FF"/>
<rect x="12" y="136" width="3" height="10" rx="1.5" fill="#0165FF"/>
<rect x="17" y="134" width="3" height="10" rx="1.5" transform="rotate(-90 17 134)" fill="#0165FF"/>
<rect y="134" width="3" height="10" rx="1.5" transform="rotate(-90 0 134)" fill="#0165FF"/>
<rect x="373.271" y="393.559" width="2.18851" height="7.29502" rx="1.09425" transform="rotate(39.4247 373.271 393.559)" fill="#FFDF37"/>
<rect x="365.395" y="403.139" width="2.18851" height="7.29502" rx="1.09425" transform="rotate(39.4247 365.395 403.139)" fill="#FFDF37"/>
<rect x="369.139" y="404.328" width="2.18851" height="7.29502" rx="1.09425" transform="rotate(-50.5753 369.139 404.328)" fill="#FFDF37"/>
<rect x="359.559" y="396.453" width="2.18851" height="7.29502" rx="1.09425" transform="rotate(-50.5753 359.559 396.453)" fill="#FFDF37"/>
<defs>
<linearGradient id="paint0_linear" x1="272.5" y1="5" x2="272.5" y2="392" gradientUnits="userSpaceOnUse">
<stop stop-color="#0099FF"/>
<stop offset="1" stop-color="#1745BB"/>
</linearGradient>
</defs>
</svg>
