<svg width="209" height="320" viewBox="0 0 209 320" fill="none" xmlns="http://www.w3.org/2000/svg">
<path d="M141.679 3.34359C144.932 1.29957 149.068 1.29957 152.321 3.34359L269.626 77.0595C272.538 78.8894 274.306 82.0873 274.306 85.5265V234.474C274.306 237.913 272.538 241.111 269.626 242.94L152.321 316.656C149.068 318.7 144.932 318.7 141.679 316.656L24.3735 242.94C21.4616 241.111 19.6943 237.913 19.6943 234.474V85.5265C19.6943 82.0873 21.4616 78.8894 24.3735 77.0595L141.679 3.34359Z" fill="#0165FF" fill-opacity="0.23"/>
<path d="M139.933 140.991L35.2726 85.4934C31.9424 83.7275 27.9302 86.1414 27.9302 89.9108V230.962C27.9302 232.613 28.7452 234.157 30.108 235.089L134.768 306.651C138.087 308.921 142.59 306.544 142.59 302.524V145.408C142.59 143.557 141.568 141.858 139.933 140.991Z" fill="url(#paint0_linear)"/>
<path d="M152.643 139.402L260.244 83.7722C263.572 82.0516 267.54 84.4673 267.54 88.2137V229.324C267.54 230.996 266.704 232.557 265.313 233.484L157.713 305.218C154.391 307.433 149.94 305.051 149.94 301.057V143.844C149.94 141.974 150.983 140.261 152.643 139.402Z" fill="url(#paint1_linear)"/>
<defs>
<linearGradient id="paint0_linear" x1="152.88" y1="139.2" x2="-9.56954" y2="241.543" gradientUnits="userSpaceOnUse">
<stop stop-color="#BCBCBC" stop-opacity="0.08"/>
<stop offset="1" stop-color="#C4C4C4" stop-opacity="0"/>
</linearGradient>
<linearGradient id="paint1_linear" x1="139.386" y1="137.6" x2="303.578" y2="243.693" gradientUnits="userSpaceOnUse">
<stop stop-color="#BCBCBC" stop-opacity="0.08"/>
<stop offset="1" stop-color="#C4C4C4" stop-opacity="0"/>
</linearGradient>
</defs>
</svg>
